<svg width="66" height="80" viewBox="0 0 66 80" fill="none" xmlns="http://www.w3.org/2000/svg">
<path d="M26.6134 32.6465H17.742V76.3957C7.58765 71.7038 0.492219 62.3671 0.0240097 51.6096C-0.679126 34.9998 14.1524 21.3345 32.5522 21.3345C34.3738 21.3342 36.1922 21.4705 37.9884 21.7419V44.3423H26.6134V32.6465Z" fill="#232323"/>
<path d="M65.099 50.4719C65.099 66.9449 49.8206 80.2234 31.2811 79.5939C29.7156 79.5411 28.1563 79.3873 26.6155 79.1335V51.3352H37.9872V63.7827H46.8717V24.3003C52.3407 26.6989 56.9483 30.4232 60.1705 35.0498C63.3927 39.6764 65.1002 45.0196 65.099 50.4719Z" fill="#232323"/>
<path d="M42.454 16.7376C47.4188 16.7376 51.4436 13.1342 51.4436 8.68929C51.4436 4.24435 47.4188 0.641022 42.454 0.641022C37.4891 0.641022 33.4644 4.24435 33.4644 8.68929C33.4644 13.1342 37.4891 16.7376 42.454 16.7376Z" fill="#FF2768"/>
</svg>
