<svg width="1125" height="771" viewBox="0 0 1125 771" fill="none" xmlns="http://www.w3.org/2000/svg">
<path d="M276.923 302.106C258.042 302.106 242.308 317.841 241.521 336.723V375.273C238.374 375.273 234.441 376.059 230.507 376.059C226.573 376.059 222.64 376.059 219.493 376.846V336.723C219.493 317.841 203.759 302.106 184.091 302.106C165.21 302.106 150.262 317.841 149.476 336.723V429.557C150.262 448.439 165.21 464.174 184.878 464.174C203.759 463.387 219.493 448.439 219.493 429.557V391.007C222.64 391.007 226.573 390.22 230.507 390.22C234.441 390.22 238.374 390.22 241.521 389.434V428.77C242.308 447.652 257.255 463.387 276.923 463.387C295.804 462.6 311.538 447.652 311.538 428.77V336.723C311.538 317.841 295.804 302.106 276.923 302.106ZM184.878 316.267C196.678 316.267 205.332 325.708 205.332 336.723V377.633C195.105 379.206 184.878 382.353 175.437 386.287C171.503 388.647 167.57 390.22 163.636 393.367V336.723C164.423 325.708 173.077 316.267 184.878 316.267ZM205.332 429.557C205.332 441.358 195.892 450.012 184.878 450.012C173.864 450.012 164.423 440.571 164.423 429.557V420.116C164.423 412.249 170.717 404.382 181.731 399.661C189.598 396.514 197.465 394.154 206.119 392.581L205.332 429.557ZM276.923 450.012C265.122 450.012 256.469 440.571 256.469 429.557V388.647C266.696 387.074 276.923 383.927 286.364 379.993C290.297 377.633 294.231 376.059 298.164 372.912V429.557C297.378 441.358 287.937 450.012 276.923 450.012ZM280.07 366.618C272.203 369.765 264.336 372.126 255.682 373.699V336.723C255.682 324.921 265.122 316.267 276.136 316.267C287.15 316.267 296.591 325.708 296.591 336.723V346.163C297.378 354.031 291.084 361.898 280.07 366.618Z" fill="url(#paint0_linear_10_2)"/>
<path d="M780.42 357.964C758.392 357.964 740.297 375.272 741.084 398.088C741.084 420.116 758.392 438.211 781.206 437.424C803.234 437.424 820.542 420.116 820.542 397.301C819.755 376.059 802.448 357.964 780.42 357.964ZM807.168 398.088C807.168 413.036 795.367 424.837 780.42 424.837C765.472 424.837 753.671 413.036 753.671 398.088C753.671 383.14 765.472 371.339 780.42 371.339C795.367 371.339 807.168 383.14 807.168 398.088Z" fill="#293258"/>
<path d="M542.832 358.751C539.685 358.751 536.538 361.898 536.538 365.045V368.192C520.804 353.244 494.843 354.817 480.682 370.552C465.734 386.287 467.308 412.249 483.042 426.41C497.99 440.571 521.591 440.571 536.538 426.41V429.557C536.538 432.704 538.899 435.851 542.832 435.851C545.979 435.851 549.126 433.491 549.126 429.557V428.77V363.471C549.126 361.111 545.979 358.751 542.832 358.751ZM535.752 398.088C535.752 413.036 523.951 424.837 509.003 424.837C494.056 424.837 482.255 413.036 482.255 398.088C482.255 383.14 494.056 371.339 509.003 371.339C523.951 371.339 535.752 383.14 535.752 398.088Z" fill="#293258"/>
<path d="M611.276 364.258C611.276 367.405 608.129 370.552 604.983 370.552H604.196C589.248 370.552 577.448 382.353 577.448 397.301C576.661 398.874 577.448 419.33 577.448 431.131C576.661 434.277 574.301 437.424 570.367 436.638C567.22 435.851 564.86 433.491 564.86 430.344V365.045C564.86 361.898 568.007 358.751 571.154 358.751H571.941C575.087 359.538 578.234 361.898 578.234 365.045V368.192C585.315 361.898 594.755 357.964 604.983 357.964H605.769C608.129 357.964 611.276 361.111 611.276 364.258Z" fill="#293258"/>
<path d="M896.066 391.007V430.344C896.066 433.491 892.919 436.638 889.773 436.638C886.626 436.638 883.479 433.491 883.479 430.344V424.05V391.007C883.479 379.993 874.038 370.552 863.024 370.552C862.238 370.552 862.238 370.552 861.451 370.552C851.224 371.339 842.57 380.78 842.57 391.007V398.874V423.263V429.557C842.57 432.704 839.423 435.851 836.276 435.851C833.129 435.851 829.982 432.704 829.982 429.557V364.258C829.982 361.111 833.129 357.964 836.276 357.964C839.423 357.964 842.57 361.111 842.57 364.258V365.045C847.29 361.111 854.371 358.751 861.451 357.964C879.545 357.178 895.28 371.339 896.066 389.434C896.066 390.22 896.066 391.007 896.066 391.007Z" fill="#293258"/>
<path d="M457.08 335.149V431.131C457.08 434.278 453.934 437.424 450.787 437.424C447.64 437.424 444.493 434.278 444.493 431.131V387.86H379.196V431.131C379.196 434.278 376.049 437.424 372.902 437.424C369.755 437.424 366.608 434.278 366.608 431.131V335.149C366.608 332.002 369.755 328.855 372.902 328.855C376.049 328.855 379.196 332.002 379.196 335.149V376.846H445.28V335.149C445.28 332.002 448.427 328.855 451.573 328.855C453.934 328.855 457.08 332.002 457.08 335.149Z" fill="#293258"/>
<path d="M731.643 394.154V430.344C731.643 433.491 728.496 436.638 725.35 436.638C722.203 436.638 719.056 433.491 719.056 430.344V397.301V388.647C719.056 378.419 711.189 370.552 701.748 370.552C692.308 370.552 683.654 378.419 683.654 387.86C683.654 388.647 683.654 388.647 683.654 388.647V430.344C683.654 433.491 681.294 436.638 677.36 436.638C674.213 436.638 671.066 434.278 671.066 430.344V429.557V395.728V387.074C671.066 376.846 663.199 368.979 653.759 368.979C644.318 368.979 635.664 376.846 635.664 386.287C635.664 387.074 635.664 387.074 635.664 387.074V428.77C635.664 431.917 633.304 435.064 629.371 435.064C626.224 435.064 623.077 432.704 623.077 428.77V427.984V362.685C623.077 359.538 626.224 356.391 629.371 356.391C632.517 356.391 635.664 358.751 635.664 361.898C649.038 352.457 667.92 354.817 678.147 368.192C688.374 354.817 708.042 352.457 720.629 362.685C728.496 368.979 732.43 377.633 732.43 387.074L731.643 394.154Z" fill="#293258"/>
<path d="M974.738 367.405L931.469 461.027C929.108 464.173 925.175 464.96 922.028 463.387C919.668 461.813 918.094 458.666 918.881 455.519L930.682 430.344L901.573 367.405C899.213 364.258 900.787 360.324 903.934 357.964C907.08 355.604 911.014 357.178 913.374 360.324C913.374 361.111 914.161 361.111 914.161 361.111L938.549 413.822L962.937 361.111C963.724 357.964 967.657 356.391 970.804 357.178C973.951 357.964 975.524 361.898 974.738 365.045C975.524 366.618 974.738 367.405 974.738 367.405Z" fill="#293258"/>
<defs>
<linearGradient id="paint0_linear_10_2" x1="271.067" y1="342.462" x2="159.216" y2="454.31" gradientUnits="userSpaceOnUse">
<stop stop-color="#00E8A2"/>
<stop offset="1" stop-color="#00ADE8"/>
</linearGradient>
</defs>
</svg>
